<svg xmlns="http://www.w3.org/2000/svg" xmlns:xlink="http://www.w3.org/1999/xlink" width="300" height="300" viewBox="0 0 300 300">
  <defs>
    <linearGradient id="a" x1="10.67" y1="150" x2="289.33" y2="150" gradientUnits="userSpaceOnUse">
      <stop offset="0" stop-color="#6c2c91"/>
      <stop offset="0.21" stop-color="#8a2688"/>
      <stop offset="0.53" stop-color="#b41f7d"/>
      <stop offset="0.69" stop-color="#c41c78"/>
      <stop offset="1" stop-color="#6c1c46"/>
    </linearGradient>
  </defs>
  <title>Artboard 5</title>
  <g>
    <g>
      <circle cx="150" cy="150" r="135.34" style="fill: #1c1819"/>
      <path d="M150,289.33c-76.83,0-139.33-62.5-139.33-139.33S73.17,10.67,150,10.67,289.33,73.17,289.33,150,226.83,289.33,150,289.33Zm0-270.67C77.58,18.66,18.66,77.58,18.66,150S77.58,281.34,150,281.34,281.34,222.42,281.34,150,222.42,18.66,150,18.66Z" style="fill: url(#a)"/>
    </g>
    <path d="M160.65,82.11a20.59,20.59,0,0,0,4.84-13.52c0-10.32-7-18.71-15.59-18.71s-15.59,8.39-15.59,18.71a20.59,20.59,0,0,0,4.84,13.52,35,35,0,0,0-26.67,34v17.07a106.17,106.17,0,0,0,2.08,20.89,10,10,0,0,0,9.82,8.06c.21,0,.43,0,.64,0,.07,3.07.22,6.14.52,9.18l5.33,53.23h-2.8a9.36,9.36,0,0,0,0,18.71h43.66a9.36,9.36,0,0,0,0-18.71h-2.79l5.32-53.23c.3-3,.45-6.11.52-9.17.21,0,.43,0,.64,0a10.06,10.06,0,0,0,9.83-8.06,106.92,106.92,0,0,0,2.07-20.89V116.12a35,35,0,0,0-26.67-34Zm-10.75-26c5.16,0,9.35,5.59,9.35,12.47s-4.19,12.47-9.35,12.47-9.35-5.59-9.35-12.47S144.74,56.12,149.9,56.12Zm31.18,77.06a99.93,99.93,0,0,1-2,19.67,3.79,3.79,0,0,1-3.71,3.05,3.48,3.48,0,0,1-.72-.11A63.67,63.67,0,0,0,171.8,140l1.69-11.85a134.74,134.74,0,0,0,1.35-19.05h-6.23a128.46,128.46,0,0,1-1.29,18.17l-1.8,12.56a3.15,3.15,0,0,0,.13,1.43,57.62,57.62,0,0,1,3,18.23c0,3.7-.19,7.44-.56,11.12l-5.66,56.66a3.12,3.12,0,0,0,3.1,3.43h6.24a3.12,3.12,0,0,1,0,6.23H153V162.13h-6.24V237H128.07a3.12,3.12,0,0,1,0-6.23h6.24a3.12,3.12,0,0,0,3.1-3.43l-5.66-56.66c-.37-3.68-.56-7.42-.56-11.12a57.62,57.62,0,0,1,3-18.23,3.15,3.15,0,0,0,.13-1.43l-1.8-12.56a130,130,0,0,1-1.29-18.17H125a134.74,134.74,0,0,0,1.35,19.05L128,140a63.67,63.67,0,0,0-2.9,15.76,3.48,3.48,0,0,1-.72.11,3.79,3.79,0,0,1-3.71-3.05,100.69,100.69,0,0,1-2-19.67V116.11A28.82,28.82,0,0,1,147.54,87.3h4.72a28.82,28.82,0,0,1,28.82,28.82Z" style="fill: #fff"/>
  </g>
</svg>
