<svg xmlns="http://www.w3.org/2000/svg" xmlns:xlink="http://www.w3.org/1999/xlink" width="300" height="300" viewBox="0 0 300 300">
  <defs>
    <linearGradient id="a" x1="10.67" y1="150" x2="289.33" y2="150" gradientUnits="userSpaceOnUse">
      <stop offset="0" stop-color="#6c2c91"/>
      <stop offset="0.21" stop-color="#8a2688"/>
      <stop offset="0.53" stop-color="#b41f7d"/>
      <stop offset="0.69" stop-color="#c41c78"/>
      <stop offset="1" stop-color="#6c1c46"/>
    </linearGradient>
  </defs>
  <title>Artboard 2</title>
  <g>
    <g>
      <circle cx="150" cy="150" r="135.34" style="fill: #1c1819"/>
      <path d="M150,289.33c-76.83,0-139.33-62.5-139.33-139.33S73.17,10.67,150,10.67,289.33,73.17,289.33,150,226.83,289.33,150,289.33Zm0-270.67C77.58,18.66,18.66,77.58,18.66,150S77.58,281.34,150,281.34,281.34,222.42,281.34,150,222.42,18.66,150,18.66Z" style="fill: url(#a)"/>
    </g>
    <path d="M110.73,100.71A41.3,41.3,0,0,0,102.06,126a88.83,88.83,0,0,0,4.58,28.19A9.92,9.92,0,0,0,120.47,160a39.14,39.14,0,0,0,2.77,5.13l8.41,56h-2.52a9,9,0,1,0,0,18h42.09a9,9,0,1,0,0-18H168.7l8.41-56a38.63,38.63,0,0,0,2.77-5.14,9.92,9.92,0,0,0,13.83-5.8,88.93,88.93,0,0,0,4.58-28.2,41.3,41.3,0,0,0-8.67-25.25A46,46,0,0,0,160.8,83.53a19.91,19.91,0,0,0,4.41-12.75c0-10-6.75-18-15-18s-15,8.09-15,18a20,20,0,0,0,4.4,12.75,46,46,0,0,0-28.81,17.18Zm39.44-42c5,0,9,5.4,9,12s-4,12-9,12-9-5.4-9-12S145.2,58.75,150.17,58.75Zm-2.85,30.07H153a40.07,40.07,0,0,1,31.84,15.58,35.28,35.28,0,0,1,7.4,21.56A83,83,0,0,1,188,152.25a3.93,3.93,0,0,1-6.09,1.95,38.38,38.38,0,0,0-1.78-25.15l-5.91-13.78v-8.41h-6v9a3,3,0,0,0,.24,1.18l6.15,14.35a32.47,32.47,0,0,1-2.87,30.88,3,3,0,0,0-.48,1.25l-9,60.14a3,3,0,0,0,3,3.45h6a3,3,0,0,1,0,6h-18V161h-6v72.17h-18a3,3,0,0,1,0-6h6a3,3,0,0,0,3-3.45l-9-60.14a3.27,3.27,0,0,0-.52-1.3,32.48,32.48,0,0,1-2.83-30.83l6.15-14.35a3,3,0,0,0,.24-1.18v-9h-6v8.41l-5.91,13.78a38.38,38.38,0,0,0-1.78,25.15,3.93,3.93,0,0,1-6.09-1.95A83,83,0,0,1,108.08,126a35.22,35.22,0,0,1,7.4-21.56,40.06,40.06,0,0,1,31.84-15.58Z" style="fill: #fff"/>
  </g>
</svg>
