<svg xmlns="http://www.w3.org/2000/svg" xmlns:xlink="http://www.w3.org/1999/xlink" width="300" height="300" viewBox="0 0 300 300">
  <defs>
    <linearGradient id="a" x1="10.67" y1="150" x2="289.33" y2="150" gradientUnits="userSpaceOnUse">
      <stop offset="0" stop-color="#6c2c91"/>
      <stop offset="0.21" stop-color="#8a2688"/>
      <stop offset="0.53" stop-color="#b41f7d"/>
      <stop offset="0.69" stop-color="#c41c78"/>
      <stop offset="1" stop-color="#6c1c46"/>
    </linearGradient>
  </defs>
  <title>Artboard 6</title>
  <g>
    <g>
      <circle cx="150" cy="150" r="135.34" style="fill: #1c1819"/>
      <path d="M150,289.33c-76.83,0-139.33-62.5-139.33-139.33S73.17,10.67,150,10.67,289.33,73.17,289.33,150,226.83,289.33,150,289.33Zm0-270.67C77.58,18.66,18.66,77.58,18.66,150S77.58,281.34,150,281.34,281.34,222.42,281.34,150,222.42,18.66,150,18.66Z" style="fill: url(#a)"/>
    </g>
    <g>
      <path d="M215.05,164.59H181.4c.28-2.57.47-5.21.56-7.87a76.79,76.79,0,0,0-3.7-27.15c-3.14-9.18-8.06-16.66-14.63-22.22a3.32,3.32,0,0,0-5.46,2.62c.19,6.46-2.58,11.63-7.4,13.82a9.64,9.64,0,0,1-10.61-1.3c-4.13-3.81-4.51-11.46-1.06-21,3-8.33.78-19.66-5.68-28.87-5.29-7.53-12.14-11.85-18.81-11.85a3.32,3.32,0,0,0-3.23,2.56C105.82,87.18,96.51,98,87.51,108.54,82,115,76.71,121.13,72.59,129.83,63.53,149,62.1,170.78,68.75,188.22a51.89,51.89,0,0,0,29,29.95,64.26,64.26,0,0,0,24,5,16.12,16.12,0,0,0,13.62,7.51h24.46a3.32,3.32,0,1,0,0-6.63H135.35a9.5,9.5,0,0,1-8.62-5.54l0,0a9.47,9.47,0,0,1-.85-3.91V180.7a9.5,9.5,0,0,1,9.49-9.48h79.7a9.49,9.49,0,0,1,9.48,9.48v33.83a9.5,9.5,0,0,1-9.48,9.49H191.41a3.32,3.32,0,0,0,0,6.63h23.64a16.14,16.14,0,0,0,16.12-16.12V180.7a16.13,16.13,0,0,0-16.12-16.11ZM100.28,212.06A45.4,45.4,0,0,1,75,185.86c-6-15.79-4.66-35.68,3.63-53.2,3.74-7.89,8.7-13.68,14-19.81,8.73-10.17,18.57-21.66,24.59-45.11,3.72,1,7.63,4.09,10.86,8.69,5.18,7.37,7.14,16.54,4.87,22.8-6,16.67-.83,24.78,2.8,28.13a16.28,16.28,0,0,0,17.86,2.47A19,19,0,0,0,164,117.12c7.82,9.46,11.9,23.42,11.35,39.36-.1,2.76-.31,5.47-.61,8.11H152c-2.67-6.5-8-11.82-15.35-15.14-.92-.41-1.85-.79-2.84-1.19-7.31-3-14.87-6-14.41-23.91a3.31,3.31,0,0,0-5.1-2.87,52.68,52.68,0,0,0-21.4,26.88,50.62,50.62,0,0,0-1.27,30.56,35.59,35.59,0,0,0,10.48,17.2,29.24,29.24,0,0,0,17.16,7.12v11.29a16.82,16.82,0,0,0,.12,1.89,57.44,57.44,0,0,1-19.07-4.36Zm35.07-47.47a16.13,16.13,0,0,0-16.12,16.11v15.89c-10.17-1-18-8.18-21.27-19.5-4.06-14.2,0-33.8,15-46.41,1.59,16.95,11.53,21,18.35,23.72.93.38,1.8.73,2.6,1.09a23.23,23.23,0,0,1,10.7,9.1Z" style="fill: #fff"/>
      <path d="M178,208.42a2.69,2.69,0,0,0-.77-1.88,2.22,2.22,0,0,0-1.68-.86,3.86,3.86,0,0,0-1.27.25l-.91.31a7.31,7.31,0,0,1-2.3.48,4.24,4.24,0,0,1-3.4-1.53,5.75,5.75,0,0,1-1.31-3.9,7,7,0,0,1,.31-2.22,5.08,5.08,0,0,1,.95-1.67,4.4,4.4,0,0,1,3.42-1.5,9.32,9.32,0,0,1,2.88.68,5.37,5.37,0,0,0,1.55.39,2.22,2.22,0,0,0,1.78-.87,3.21,3.21,0,0,0,.72-2.06c0-1.09-.69-2-2.06-2.69a10.67,10.67,0,0,0-5-1.08,10.24,10.24,0,0,0-7.72,3.14,11.94,11.94,0,0,0,0,15.9,11.26,11.26,0,0,0,12.7,2,3.31,3.31,0,0,0,2.07-2.85Z" style="fill: #fff"/>
      <path d="M195.29,211.86a8.9,8.9,0,0,0,2.55-2c1.19,1.66,2.15,2.5,2.89,2.5a3,3,0,0,0,2.18-.86,2.65,2.65,0,0,0,.87-1.95V192.89a2.23,2.23,0,0,0-.91-1.83,3.13,3.13,0,0,0-2.1-.79c-.79,0-1.74.76-2.85,2.26a11.55,11.55,0,0,0-2.59-1.8,6.72,6.72,0,0,0-2.76-.49,8.82,8.82,0,0,0-6.93,3.22,11.65,11.65,0,0,0-2.81,7.9,11.49,11.49,0,0,0,2.79,7.81,8.77,8.77,0,0,0,6.88,3.21,6.62,6.62,0,0,0,2.79-.52Zm-5.12-6.56a6,6,0,0,1-1.24-3.94,6.15,6.15,0,0,1,1.24-3.94,4,4,0,0,1,6.3,0,6.21,6.21,0,0,1,1.21,4,6.12,6.12,0,0,1-1.24,3.93,4,4,0,0,1-6.27,0Z" style="fill: #fff"/>
      <path d="M142.69,181.79a3,3,0,0,0-4.31,0,3,3,0,0,0-.91,2.18v25.28a3.19,3.19,0,0,0,.91,2.18,3.06,3.06,0,0,0,2.18.91,2.88,2.88,0,0,0,2.13-.91,3,3,0,0,0,.92-2.18v-7.13L150.7,211a3.34,3.34,0,0,0,2.58,1.43,3,3,0,0,0,2.18-.88,2.82,2.82,0,0,0,.86-2.06,3.06,3.06,0,0,0-.79-2.06l-6.5-7.52,4.76-4.2a3.24,3.24,0,0,0,1.23-2.41,2.86,2.86,0,0,0-.85-2,2.76,2.76,0,0,0-2-.87,4,4,0,0,0-2.58,1.35l-5.94,5.83V184a3,3,0,0,0-.92-2.18Z" style="fill: #fff"/>
      <path d="M215.87,211.43a3,3,0,0,0,.91-2.18V184.06a3,3,0,0,0-.91-2.18,3.09,3.09,0,0,0-5.27,2.18v25.23a3,3,0,0,0,.9,2.16,3,3,0,0,0,2.19.89A3,3,0,0,0,215.87,211.43Z" style="fill: #fff"/>
      <path d="M175.2,224h0a3.32,3.32,0,1,0,3.33,3.31,3.31,3.31,0,0,0-3.33-3.31Z" style="fill: #fff"/>
    </g>
  </g>
</svg>
