<svg xmlns="http://www.w3.org/2000/svg" xmlns:xlink="http://www.w3.org/1999/xlink" width="300" height="300" viewBox="0 0 300 300">
  <defs>
    <linearGradient id="a" x1="10.67" y1="150" x2="289.33" y2="150" gradientUnits="userSpaceOnUse">
      <stop offset="0" stop-color="#6c2c91"/>
      <stop offset="0.21" stop-color="#8a2688"/>
      <stop offset="0.53" stop-color="#b41f7d"/>
      <stop offset="0.69" stop-color="#c41c78"/>
      <stop offset="1" stop-color="#6c1c46"/>
    </linearGradient>
  </defs>
  <title>Artboard 3</title>
  <g>
    <g>
      <circle cx="150" cy="150" r="135.34" style="fill: #1c1819"/>
      <path d="M150,289.33c-76.83,0-139.33-62.5-139.33-139.33S73.17,10.67,150,10.67,289.33,73.17,289.33,150,226.83,289.33,150,289.33Zm0-270.67C77.58,18.66,18.66,77.58,18.66,150S77.58,281.34,150,281.34,281.34,222.42,281.34,150,222.42,18.66,150,18.66Z" style="fill: url(#a)"/>
    </g>
    <g>
      <path d="M209.23,165.67H175.58q.42-3.87.57-7.88a76.93,76.93,0,0,0-3.71-27.14,49.35,49.35,0,0,0-14.63-22.23,3.31,3.31,0,0,0-5.45,2.63c.18,6.45-2.58,11.62-7.41,13.82a9.67,9.67,0,0,1-10.61-1.31c-4.12-3.8-4.51-11.46-1.06-21,3-8.33.78-19.66-5.68-28.87-5.28-7.53-12.14-11.85-18.81-11.85a3.32,3.32,0,0,0-3.23,2.56C100,88.25,90.69,99.11,81.69,109.61c-5.55,6.48-10.8,12.6-14.91,21.29-9.06,19.12-10.5,40.95-3.84,58.4a51.89,51.89,0,0,0,28.94,29.94,64.08,64.08,0,0,0,24,5,16.11,16.11,0,0,0,13.61,7.51H154a3.32,3.32,0,1,0,0-6.63H129.53a9.5,9.5,0,0,1-8.62-5.53l0-.05a9.42,9.42,0,0,1-.84-3.91V181.77a9.49,9.49,0,0,1,9.48-9.47h79.7a9.49,9.49,0,0,1,9.49,9.47V215.6a9.5,9.5,0,0,1-9.49,9.49H185.6a3.32,3.32,0,1,0,0,6.63h23.63a16.14,16.14,0,0,0,16.12-16.12V181.77a16.13,16.13,0,0,0-16.12-16.1ZM94.46,213.13a45.4,45.4,0,0,1-25.33-26.2c-6-15.79-4.66-35.67,3.64-53.19,3.73-7.89,8.7-13.68,14-19.81,8.73-10.18,18.58-21.66,24.59-45.12,3.72,1,7.64,4.09,10.87,8.69,5.17,7.38,7.13,16.54,4.86,22.8-6,16.67-.83,24.79,2.8,28.14a16.28,16.28,0,0,0,17.86,2.46,19,19,0,0,0,10.47-12.71c7.82,9.47,11.91,23.42,11.35,39.37-.1,2.75-.3,5.46-.61,8.11H146.14c-2.66-6.5-8-11.82-15.34-15.14-.92-.42-1.86-.8-2.85-1.2-7.31-3-14.87-6-14.4-23.9a3.32,3.32,0,0,0-5.11-2.88,52.64,52.64,0,0,0-21.39,26.89A50.59,50.59,0,0,0,85.77,180a35.59,35.59,0,0,0,10.48,17.2,29.31,29.31,0,0,0,17.17,7.13V215.6a16.87,16.87,0,0,0,.11,1.9,57.26,57.26,0,0,1-19.07-4.37Zm35.07-47.46a16.12,16.12,0,0,0-16.11,16.1v15.9c-10.18-1-18-8.19-21.28-19.5-4.06-14.2,0-33.81,15-46.42,1.59,16.95,11.53,21,18.35,23.73.93.37,1.8.73,2.6,1.09a23.06,23.06,0,0,1,10.7,9.1Z" style="fill: #fff"/>
      <path d="M172.14,209.49a2.74,2.74,0,0,0-.77-1.88,2.28,2.28,0,0,0-1.69-.86,3.86,3.86,0,0,0-1.27.25l-.91.31a7.31,7.31,0,0,1-2.29.48,4.28,4.28,0,0,1-3.41-1.52,5.85,5.85,0,0,1-1.31-3.91,7.39,7.39,0,0,1,.31-2.22,5,5,0,0,1,.95-1.66,4.41,4.41,0,0,1,3.42-1.51,9.6,9.6,0,0,1,2.89.68,5.25,5.25,0,0,0,1.54.39,2.24,2.24,0,0,0,1.79-.87,3.18,3.18,0,0,0,.71-2.06c0-1.08-.69-2-2.06-2.69a10.76,10.76,0,0,0-5-1.07,10.24,10.24,0,0,0-7.73,3.13,11,11,0,0,0-3,8,10.88,10.88,0,0,0,3.05,7.94,11.22,11.22,0,0,0,12.7,2,3.32,3.32,0,0,0,2.08-2.85Z" style="fill: #fff"/>
      <path d="M189.47,212.93a8.72,8.72,0,0,0,2.55-2c1.19,1.67,2.15,2.5,2.9,2.5a3,3,0,0,0,2.17-.85,2.67,2.67,0,0,0,.87-2V194a2.21,2.21,0,0,0-.91-1.82,3.09,3.09,0,0,0-2.1-.79c-.79,0-1.74.75-2.84,2.26a11.56,11.56,0,0,0-2.6-1.81,6.69,6.69,0,0,0-2.76-.49,8.81,8.81,0,0,0-6.93,3.23,11.61,11.61,0,0,0-2.81,7.9,11.48,11.48,0,0,0,2.79,7.8,8.79,8.79,0,0,0,6.88,3.21,6.59,6.59,0,0,0,2.79-.52Zm-5.11-6.55a6,6,0,0,1-1.25-3.94,6.13,6.13,0,0,1,1.25-3.94,3.81,3.81,0,0,1,3.11-1.57,3.89,3.89,0,0,1,3.19,1.53,6.23,6.23,0,0,1,1.2,4,6,6,0,0,1-1.24,3.92,4,4,0,0,1-6.26,0Z" style="fill: #fff"/>
      <path d="M136.88,182.86a3,3,0,0,0-4.32,0,3,3,0,0,0-.91,2.19v25.27a3.17,3.17,0,0,0,.91,2.18,3.06,3.06,0,0,0,2.18.91,2.91,2.91,0,0,0,2.14-.91,3,3,0,0,0,.91-2.18v-7.13l7.09,8.83a3.36,3.36,0,0,0,2.58,1.43,3,3,0,0,0,2.18-.87,2.84,2.84,0,0,0,.87-2.06,3.11,3.11,0,0,0-.79-2.06l-6.5-7.53,4.76-4.19a3.28,3.28,0,0,0,1.22-2.42,3,3,0,0,0-2.89-2.9,4.06,4.06,0,0,0-2.58,1.35l-5.94,5.83V185.05a3,3,0,0,0-.91-2.19Z" style="fill: #fff"/>
      <path d="M210.05,212.5a3,3,0,0,0,.91-2.18V185.13a3.08,3.08,0,0,0-5.27-2.18,3,3,0,0,0-.91,2.18v25.24a2.9,2.9,0,0,0,.91,2.15,3,3,0,0,0,2.18.89A3,3,0,0,0,210.05,212.5Z" style="fill: #fff"/>
      <path d="M169.38,225.09h0a3.32,3.32,0,1,0,3.34,3.32,3.3,3.3,0,0,0-3.34-3.32Z" style="fill: #fff"/>
      <path d="M227.65,101.79a2.66,2.66,0,0,0-2.46-1.64H213.71V65.07a2.66,2.66,0,0,0-2.65-2.66H186.68A2.66,2.66,0,0,0,184,65.07v35.08H172.55a2.65,2.65,0,0,0-1.88,4.53L197,131h0a2.66,2.66,0,0,0,3.76,0l26.32-26.32A2.65,2.65,0,0,0,227.65,101.79Zm-16.59,3.67h7.72l-19.91,19.91L179,105.46h7.72a2.66,2.66,0,0,0,2.66-2.66V67.72H208.4V102.8A2.66,2.66,0,0,0,211.06,105.46Z" style="fill: #fff"/>
    </g>
  </g>
</svg>
