<svg xmlns="http://www.w3.org/2000/svg" xmlns:xlink="http://www.w3.org/1999/xlink" width="300" height="300" viewBox="0 0 300 300">
  <defs>
    <linearGradient id="a" x1="10.67" y1="150" x2="289.33" y2="150" gradientUnits="userSpaceOnUse">
      <stop offset="0" stop-color="#6c2c91"/>
      <stop offset="0.21" stop-color="#8a2688"/>
      <stop offset="0.53" stop-color="#b41f7d"/>
      <stop offset="0.69" stop-color="#c41c78"/>
      <stop offset="1" stop-color="#6c1c46"/>
    </linearGradient>
  </defs>
  <title>Artboard 1</title>
  <g>
    <g>
      <circle cx="150" cy="150" r="135.34" style="fill: #1c1819"/>
      <path d="M150,289.33c-76.83,0-139.33-62.5-139.33-139.33S73.17,10.67,150,10.67,289.33,73.17,289.33,150,226.83,289.33,150,289.33Zm0-270.67C77.58,18.66,18.66,77.58,18.66,150S77.58,281.34,150,281.34,281.34,222.42,281.34,150,222.42,18.66,150,18.66Z" style="fill: url(#a)"/>
    </g>
    <g>
      <path d="M150,62.66c-46.54,0-86.11,36.29-90.07,82.61a10.38,10.38,0,0,0,2.69,7.87,10.53,10.53,0,0,0,7.73,3.4h21a10.5,10.5,0,0,0,10.35-9.32A48.69,48.69,0,0,1,150,104.38a48,48,0,0,1,26.15,7.67c-11.53,8.42-24.68,18.84-35.62,29.75A14.68,14.68,0,0,0,149.12,167a13.58,13.58,0,0,0,1.56.08,14.58,14.58,0,0,0,10.37-4.31c11-11,21.49-24.22,29.95-35.82a48.27,48.27,0,0,1,7.33,20.29,10.49,10.49,0,0,0,10.35,9.32h21a10.55,10.55,0,0,0,7.73-3.4,10.37,10.37,0,0,0,2.69-7.86A90.52,90.52,0,0,0,150,62.66Zm-3.48,7.12V97.59a55.52,55.52,0,0,0-33.32,13.76L93.62,91.77a83.38,83.38,0,0,1,52.9-22ZM94.76,146.39a3.5,3.5,0,0,1-3.44,3.2h-21a3.53,3.53,0,0,1-2.6-1.15,3.33,3.33,0,0,1-.89-2.57A82.82,82.82,0,0,1,88.72,96.7l19.6,19.6A55.26,55.26,0,0,0,94.76,146.39Zm58.72-48.82V69.69a82.71,82.71,0,0,1,53,22l-6,6a6.23,6.23,0,0,0-4.8.87c-3.7,2.43-8.37,5.58-13.56,9.24a54.62,54.62,0,0,0-28.66-10.18Zm2.65,60.27a7.7,7.7,0,0,1-12-1.34,7.85,7.85,0,0,1,1.3-9.78c16.66-16.59,38.69-32.18,51.76-40.86-8.69,13.1-24.36,35.27-41.07,52Zm76.13-9.4a3.55,3.55,0,0,1-2.61,1.15h-21a3.49,3.49,0,0,1-3.44-3.19,55.21,55.21,0,0,0-9.91-25.49c3.65-5.17,6.79-9.84,9.22-13.54a6.33,6.33,0,0,0,.86-4.8l5.93-5.92a83.36,83.36,0,0,1,21.81,49.22,3.38,3.38,0,0,1-.89,2.57Z" style="fill: #fff"/>
      <path d="M161.23,181a3.47,3.47,0,0,0-3.91,1.83L150,197.44l-7.32-14.64a3.48,3.48,0,0,0-6.59,1.55v34.77a3.48,3.48,0,1,0,7,0v-20l3.84,7.69a3.62,3.62,0,0,0,6.22,0l3.84-7.69v20a3.48,3.48,0,1,0,7,0V184.35a3.47,3.47,0,0,0-2.69-3.38Z" style="fill: #fff"/>
      <path d="M198.68,187.83a3.48,3.48,0,1,0,0-7H177.82a3.48,3.48,0,1,0,0,7h7v27.82h-7a3.48,3.48,0,1,0,0,6.95h20.86a3.48,3.48,0,1,0,0-6.95h-7V187.83Z" style="fill: #fff"/>
      <path d="M125.66,193.05a12.18,12.18,0,0,0-12.17-12.17H101.32a3.47,3.47,0,0,0-3.48,3.47v34.77a3.48,3.48,0,0,0,3.48,3.48h12.17A12.15,12.15,0,0,0,122,201.74,12.1,12.1,0,0,0,125.66,193.05Zm-7,17.38a5.22,5.22,0,0,1-5.22,5.22H104.8V205.22h8.69A5.22,5.22,0,0,1,118.71,210.43ZM104.8,198.26V187.83h8.69a5.22,5.22,0,1,1,0,10.43Z" style="fill: #fff"/>
    </g>
  </g>
</svg>
