<svg xmlns="http://www.w3.org/2000/svg" xmlns:xlink="http://www.w3.org/1999/xlink" width="300" height="300" viewBox="0 0 300 300">
  <defs>
    <linearGradient id="a" x1="10.67" y1="150" x2="289.33" y2="150" gradientUnits="userSpaceOnUse">
      <stop offset="0" stop-color="#6c2c91"/>
      <stop offset="0.21" stop-color="#8a2688"/>
      <stop offset="0.53" stop-color="#b41f7d"/>
      <stop offset="0.69" stop-color="#c41c78"/>
      <stop offset="1" stop-color="#6c1c46"/>
    </linearGradient>
  </defs>
  <title>Artboard 4</title>
  <g>
    <g>
      <circle cx="150" cy="150" r="135.34" style="fill: #1c1819"/>
      <path d="M150,289.33c-76.83,0-139.33-62.5-139.33-139.33S73.17,10.67,150,10.67,289.33,73.17,289.33,150,226.83,289.33,150,289.33Zm0-270.67C77.58,18.66,18.66,77.58,18.66,150S77.58,281.34,150,281.34,281.34,222.42,281.34,150,222.42,18.66,150,18.66Z" style="fill: url(#a)"/>
    </g>
    <g>
      <path d="M211.49,164.91H177.84c.28-2.58.47-5.21.56-7.87a76.76,76.76,0,0,0-3.7-27.15c-3.14-9.19-8.06-16.66-14.63-22.23a3.32,3.32,0,0,0-5.46,2.63c.19,6.46-2.58,11.62-7.4,13.82a9.66,9.66,0,0,1-10.61-1.3c-4.13-3.81-4.51-11.46-1.06-21,3-8.33.78-19.66-5.68-28.86-5.29-7.54-12.14-11.86-18.81-11.86a3.31,3.31,0,0,0-3.23,2.57C102.26,87.49,93,98.35,84,108.86c-5.56,6.47-10.8,12.59-14.92,21.28-9.06,19.12-10.49,41-3.84,58.4a51.92,51.92,0,0,0,29,30,64.06,64.06,0,0,0,24,5A16.13,16.13,0,0,0,131.79,231h24.46a3.32,3.32,0,0,0,0-6.64H131.79a9.5,9.5,0,0,1-8.62-5.53l0,0a9.5,9.5,0,0,1-.85-3.91V181a9.5,9.5,0,0,1,9.49-9.48h79.7A9.49,9.49,0,0,1,221,181v33.83a9.49,9.49,0,0,1-9.48,9.48H187.85a3.32,3.32,0,0,0,0,6.64h23.64a16.14,16.14,0,0,0,16.12-16.12V181a16.13,16.13,0,0,0-16.12-16.11ZM96.72,212.38a45.4,45.4,0,0,1-25.33-26.2c-6-15.79-4.66-35.68,3.63-53.2,3.74-7.89,8.7-13.68,14-19.81,8.73-10.18,18.57-21.66,24.59-45.11,3.72,1,7.63,4.08,10.86,8.68,5.18,7.38,7.14,16.55,4.87,22.81-6,16.67-.83,24.78,2.8,28.13A16.28,16.28,0,0,0,150,130.15a19,19,0,0,0,10.47-12.72c7.82,9.47,11.9,23.42,11.35,39.37-.1,2.75-.31,5.47-.61,8.11H148.4c-2.67-6.5-8-11.82-15.35-15.14-.92-.42-1.85-.79-2.84-1.2-7.31-2.95-14.87-6-14.41-23.9a3.32,3.32,0,0,0-5.1-2.88,52.7,52.7,0,0,0-21.4,26.89A50.62,50.62,0,0,0,88,179.24a35.59,35.59,0,0,0,10.48,17.2,29.3,29.3,0,0,0,17.16,7.12v11.29a16.82,16.82,0,0,0,.12,1.89,57.44,57.44,0,0,1-19.07-4.36Zm35.07-47.47A16.13,16.13,0,0,0,115.67,181v15.89c-10.17-1-18-8.19-21.27-19.5-4.06-14.2,0-33.81,15-46.42,1.59,16.95,11.53,21,18.35,23.73.93.38,1.8.73,2.6,1.09a23.23,23.23,0,0,1,10.7,9.1Z" style="fill: #fff"/>
      <path d="M174.39,208.74a2.73,2.73,0,0,0-.77-1.89,2.24,2.24,0,0,0-1.68-.85,3.83,3.83,0,0,0-1.27.24l-.91.31a7.31,7.31,0,0,1-2.3.48,4.26,4.26,0,0,1-3.4-1.52,5.77,5.77,0,0,1-1.31-3.9,7,7,0,0,1,.31-2.22,5.08,5.08,0,0,1,.95-1.67,4.37,4.37,0,0,1,3.42-1.5,9.53,9.53,0,0,1,2.88.67,5.15,5.15,0,0,0,1.55.4,2.2,2.2,0,0,0,1.78-.88,3.19,3.19,0,0,0,.72-2.06c0-1.08-.69-2-2.06-2.69a10.8,10.8,0,0,0-5-1.07,10.27,10.27,0,0,0-7.72,3.13,12,12,0,0,0,0,15.91,11.23,11.23,0,0,0,12.7,2,3.31,3.31,0,0,0,2.07-2.84Z" style="fill: #fff"/>
      <path d="M191.73,212.18a8.9,8.9,0,0,0,2.55-2c1.19,1.66,2.15,2.5,2.89,2.5a3,3,0,0,0,2.18-.86,2.65,2.65,0,0,0,.87-2V193.21a2.21,2.21,0,0,0-.91-1.83,3.13,3.13,0,0,0-2.1-.79c-.79,0-1.74.76-2.85,2.26a11.65,11.65,0,0,0-2.59-1.81,6.72,6.72,0,0,0-2.76-.49,8.83,8.83,0,0,0-6.93,3.23,11.63,11.63,0,0,0-2.81,7.9,11.51,11.51,0,0,0,2.79,7.81,8.8,8.8,0,0,0,6.88,3.21,6.78,6.78,0,0,0,2.79-.52Zm-5.12-6.56a6,6,0,0,1-1.24-3.94,6.13,6.13,0,0,1,1.24-3.94,4,4,0,0,1,6.3,0,6.19,6.19,0,0,1,1.21,4,6.07,6.07,0,0,1-1.24,3.92,4,4,0,0,1-6.27,0Z" style="fill: #fff"/>
      <path d="M139.13,182.11a3,3,0,0,0-4.31,0,3,3,0,0,0-.91,2.18v25.27a3.15,3.15,0,0,0,.91,2.18,3,3,0,0,0,2.18.92,2.86,2.86,0,0,0,2.13-.92,2.93,2.93,0,0,0,.92-2.18v-7.13l7.09,8.84a3.37,3.37,0,0,0,2.58,1.43,3,3,0,0,0,2.18-.88,2.82,2.82,0,0,0,.86-2.06,3.06,3.06,0,0,0-.79-2.06l-6.5-7.52,4.76-4.2a3.24,3.24,0,0,0,1.23-2.42,2.84,2.84,0,0,0-.85-2,2.76,2.76,0,0,0-2-.87A4,4,0,0,0,146,192l-5.94,5.83V184.29a2.93,2.93,0,0,0-.92-2.18Z" style="fill: #fff"/>
      <path d="M212.31,211.74a3,3,0,0,0,.91-2.18V184.37a3.09,3.09,0,1,0-6.18,0v25.24a2.91,2.91,0,0,0,.9,2.15,3,3,0,0,0,2.19.9A3,3,0,0,0,212.31,211.74Z" style="fill: #fff"/>
      <path d="M171.64,224.33h0a3.32,3.32,0,1,0,3.33,3.32,3.32,3.32,0,0,0-3.33-3.32Z" style="fill: #fff"/>
      <path d="M171.61,91.65a2.66,2.66,0,0,0,2.46,1.64h11.47v35.08A2.67,2.67,0,0,0,188.2,131h24.38a2.66,2.66,0,0,0,2.65-2.66V93.29h11.48a2.66,2.66,0,0,0,1.88-4.54L202.27,62.43h0a2.66,2.66,0,0,0-3.76,0L172.19,88.75A2.67,2.67,0,0,0,171.61,91.65ZM188.2,88h-7.72l19.91-19.91L220.3,88h-7.72a2.66,2.66,0,0,0-2.66,2.65v35.08H190.86V90.63A2.66,2.66,0,0,0,188.2,88Z" style="fill: #fff"/>
    </g>
  </g>
</svg>
